P2
# CREATOR: DMDpaint
128 32
255
84
84
84
84
84
84
84
84
84
84
84
84
84
84
84
84
84
51
51
51
51
51
51
51
51
51
51
51
51
51
51
51
51
51
51
51
51
84
84
84
84
84
51
51
51
51
51
51
51
51
51
51
51
51
51
51
51
51
51
51
51
51
51
51
51
51
84
84
168
168
168
84
84
84
84
84
51
51
84
84
84
84
84
84
84
84
84
84
84
84
84
84
84
84
84
84
51
51
51
51
51
51
51
51
51
51
51
51
51
51
51
51
51
51
51
51
51
51
51
51
51
51
51
51
51
51
51
51
84
84
84
84
84
84
84
84
84
84
84
84
84
84
84
84
84
51
51
51
51
51
51
51
51
51
51
51
51
51
51
51
51
51
51
51
84
84
84
84
84
84
84
84
51
51
51
51
51
51
51
51
51
51
51
51
51
51
51
51
51
51
51
51
84
84
168
168
168
168
84
84
51
84
51
51
51
51
51
51
51
51
51
84
84
84
84
84
84
84
84
84
84
84
84
51
51
51
51
51
51
51
51
51
51
51
51
51
51
51
51
51
51
51
51
51
51
51
51
51
51
51
51
51
51
51
51
51
84
84
84
84
84
84
84
84
84
84
84
84
84
84
84
84
84
51
51
51
51
51
51
51
51
51
51
51
51
51
51
51
51
51
51
84
84
84
84
84
84
84
84
84
51
51
51
51
51
51
51
51
51
51
51
51
51
51
51
51
51
51
84
84
168
168
168
84
168
84
51
51
51
51
51
51
51
51
51
51
51
51
51
84
84
84
84
84
84
84
84
84
84
84
51
51
51
51
51
51
51
51
84
84
51
51
51
51
51
51
51
51
51
51
51
51
51
51
51
51
51
51
51
51
51
51
51
51
84
84
84
84
84
84
84
84
84
84
84
84
84
84
84
84
84
51
51
51
51
51
51
51
51
51
51
51
51
51
51
51
51
51
51
84
84
84
84
84
84
84
84
84
51
51
51
51
51
51
51
51
51
51
51
51
51
51
51
51
51
84
168
168
168
168
84
84
84
84
84
84
84
84
84
84
84
51
51
51
51
51
51
84
84
84
84
84
84
84
84
84
84
51
51
51
51
51
51
51
84
84
84
84
84
51
51
51
51
51
51
51
51
51
51
51
51
51
51
51
51
51
51
51
51
51
51
51
84
84
84
84
84
84
84
84
84
84
84
84
84
84
84
84
84
51
51
51
51
51
51
51
51
51
51
51
51
51
51
51
51
51
51
84
84
84
84
84
84
84
84
84
51
51
51
51
51
51
51
51
51
51
51
51
51
51
51
84
84
168
168
168
168
84
84
84
84
84
84
84
84
84
84
84
84
84
84
84
84
84
84
84
84
84
84
84
84
84
84
84
84
51
51
51
51
51
51
51
84
51
51
84
84
51
51
51
51
51
51
51
51
51
51
51
51
51
51
51
51
51
51
51
51
51
51
51
84
84
84
84
84
84
84
84
84
84
84
84
84
84
84
84
84
51
51
51
51
51
51
51
51
51
51
51
51
51
51
51
51
51
51
84
84
84
84
84
84
84
84
84
51
51
51
51
51
51
51
51
51
51
51
51
51
51
84
84
168
168
168
168
168
84
84
84
84
84
84
84
84
84
84
84
84
84
84
84
84
84
84
84
84
84
168
168
84
84
84
84
84
51
51
51
51
51
51
51
51
51
51
51
51
51
51
51
51
51
51
51
51
51
51
51
51
51
51
51
51
51
51
51
51
51
51
51
84
84
84
84
84
84
84
84
84
84
84
84
84
84
84
84
84
51
51
51
51
51
51
51
51
51
51
51
51
51
51
51
51
51
51
84
84
84
84
84
84
84
84
51
51
51
51
51
51
51
51
51
51
51
51
51
51
84
84
84
168
168
168
168
84
84
84
84
84
84
84
84
84
84
84
84
84
84
84
84
84
84
84
84
84
84
84
168
168
84
84
84
84
84
51
51
51
51
51
51
51
51
51
51
51
51
51
51
51
51
51
51
51
51
51
51
51
51
51
51
51
51
51
51
51
51
51
51
84
84
84
84
84
84
84
84
84
84
84
84
84
84
84
84
84
51
51
51
51
51
51
51
51
51
51
51
51
51
51
51
51
51
51
51
84
84
84
84
84
84
84
51
51
51
51
51
51
51
51
51
51
51
51
51
51
84
84
84
168
168
168
84
84
84
84
84
84
84
84
84
84
84
84
84
84
84
84
84
84
51
84
84
84
84
84
168
168
168
84
84
84
84
51
51
51
51
51
51
51
84
84
51
51
51
51
51
51
51
51
51
51
51
51
51
51
51
51
51
51
51
51
51
51
51
51
51
84
84
84
84
84
84
84
84
84
84
84
84
84
84
84
84
84
51
51
51
51
51
51
51
51
51
51
51
51
51
51
51
51
51
51
51
51
84
84
84
84
51
51
51
51
51
51
51
51
51
51
51
51
51
51
51
51
84
84
84
84
84
84
84
84
84
84
84
84
84
84
84
84
84
84
51
51
51
51
51
51
51
51
84
84
84
84
168
168
168
84
84
84
84
51
51
51
51
51
51
51
84
84
51
51
51
51
51
51
51
51
51
51
51
51
51
51
51
51
51
51
51
51
51
51
51
51
51
84
84
84
84
84
84
84
84
84
84
84
84
84
84
84
84
84
51
51
51
51
51
51
51
51
51
51
51
51
51
51
51
51
51
51
51
51
51
51
51
51
51
51
51
51
51
51
51
51
51
51
51
51
51
51
51
51
84
84
84
84
84
84
84
84
84
84
84
84
84
84
84
84
51
51
51
51
51
84
84
51
51
84
84
84
84
84
168
168
168
168
84
84
84
84
51
51
51
51
51
51
84
84
84
51
51
51
51
51
51
51
51
51
51
51
51
51
51
51
51
51
51
51
51
51
51
51
51
84
84
84
84
84
84
84
84
84
84
84
84
84
84
84
84
51
51
51
51
51
51
51
51
51
51
51
51
51
51
51
51
51
51
51
51
51
51
51
51
51
51
51
51
51
51
51
51
51
51
51
51
51
51
51
51
51
51
84
84
84
84
84
84
84
84
84
84
84
84
84
51
51
51
51
51
51
84
84
84
84
84
84
84
84
84
84
168
168
168
168
84
84
84
84
51
51
51
51
51
51
84
84
84
51
51
51
51
51
51
51
51
51
51
51
51
51
51
51
51
51
51
51
51
51
51
51
51
84
84
84
84
84
84
84
84
84
84
84
84
84
84
84
84
51
51
51
51
51
51
51
51
51
51
51
51
51
51
51
51
51
51
51
51
51
51
51
51
51
51
51
51
51
51
51
51
51
51
51
51
51
51
51
51
51
51
84
84
84
84
84
84
84
84
84
84
84
84
84
51
51
51
51
51
51
84
84
84
84
84
84
84
84
84
168
168
168
168
168
168
84
84
84
84
51
51
51
51
51
51
51
51
51
51
51
51
51
51
51
51
51
51
51
51
51
51
51
51
51
51
51
51
51
51
51
51
84
84
84
84
84
84
84
84
84
84
84
84
84
84
84
84
51
51
51
51
51
51
51
51
51
51
51
51
51
51
51
51
51
51
51
51
51
51
51
51
51
51
51
51
51
51
51
51
51
51
51
51
51
51
51
51
51
51
84
84
84
84
84
84
84
84
84
84
84
84
84
84
84
51
51
51
84
84
84
84
84
84
84
84
84
84
168
168
168
168
168
168
168
84
84
84
84
51
51
51
51
51
51
51
51
51
51
51
51
51
51
51
51
51
51
51
51
51
51
51
51
51
51
51
51
51
51
51
84
84
84
84
84
84
84
84
84
84
84
84
84
84
84
84
51
51
51
51
51
51
51
51
51
51
51
51
51
51
51
51
51
51
51
51
51
51
51
51
51
51
51
51
51
51
51
51
51
51
51
51
51
51
51
51
51
51
84
84
84
84
84
84
84
84
84
84
84
84
84
84
168
84
84
84
84
84
84
84
84
84
84
84
84
168
168
168
168
168
168
168
168
168
84
84
84
84
51
51
51
84
84
51
51
51
51
51
51
51
51
51
51
51
51
51
51
51
51
51
51
51
51
51
51
51
51
51
84
84
84
84
84
84
84
84
84
84
84
84
84
84
84
84
84
51
51
51
51
51
51
51
51
51
51
51
51
51
51
51
51
51
51
51
51
51
51
51
51
51
51
51
51
51
51
51
51
51
51
51
51
51
51
51
51
84
84
84
84
84
84
84
84
84
84
84
84
84
84
84
84
84
84
84
84
84
84
84
84
84
84
84
84
168
168
168
168
168
168
168
168
168
168
84
84
84
84
51
51
51
84
84
84
51
51
51
51
51
51
51
51
51
51
51
51
51
51
51
51
51
51
51
51
51
51
51
84
84
84
84
84
84
84
84
84
84
84
84
84
84
84
84
51
51
51
51
51
51
51
51
51
51
51
51
51
51
51
51
51
51
51
51
51
51
51
51
51
51
51
51
51
51
51
51
51
51
51
51
51
51
51
51
51
84
84
84
84
84
84
84
168
84
84
84
84
168
168
84
84
84
84
84
84
84
84
84
84
84
84
84
168
168
168
168
168
168
168
168
168
168
168
84
84
84
84
51
51
51
51
84
51
51
51
51
51
51
51
51
51
51
51
51
51
51
51
51
51
51
51
51
51
51
51
51
84
84
84
84
84
84
84
84
84
84
84
84
84
84
84
84
51
51
51
51
51
51
51
51
51
51
51
51
51
51
51
51
51
51
51
51
51
51
51
51
51
51
51
51
51
51
51
51
51
51
51
51
51
51
51
51
51
84
84
84
84
84
84
84
168
84
168
168
168
168
168
168
84
84
84
84
84
84
84
84
84
84
84
168
168
168
168
168
168
168
168
168
168
168
168
168
84
84
84
84
51
51
51
51
51
51
51
51
51
51
51
51
51
51
51
51
51
51
51
51
51
51
51
51
51
51
51
51
84
84
84
84
84
84
84
84
84
84
84
84
84
84
84
84
51
51
51
51
51
51
51
51
51
51
51
51
51
51
51
51
51
51
51
51
51
51
51
51
51
51
51
51
51
51
51
51
51
51
51
51
51
51
51
51
51
51
84
84
84
84
84
84
84
168
168
168
168
168
168
168
168
84
84
84
84
84
84
84
84
84
84
168
168
168
168
168
168
168
168
168
168
84
168
168
84
84
84
84
51
51
51
51
51
51
51
51
51
51
51
51
51
51
51
51
51
51
51
51
51
51
51
51
51
51
51
51
84
84
84
84
84
84
84
84
84
84
84
84
84
84
84
84
51
51
51
51
51
51
51
51
51
51
51
51
51
51
51
51
51
51
51
51
51
51
51
51
51
51
51
51
51
51
51
51
51
51
51
51
51
51
51
51
51
51
84
84
84
84
84
168
168
168
168
168
168
168
168
168
168
168
168
168
168
84
84
84
84
84
168
168
168
168
168
168
168
168
168
84
168
168
168
168
168
84
84
84
51
51
51
51
51
51
51
51
51
51
51
51
51
51
51
51
51
51
51
51
51
51
51
51
51
51
51
51
84
84
84
84
84
84
84
84
84
84
84
84
84
84
84
84
51
51
51
51
51
51
51
51
51
51
51
51
51
51
51
51
51
51
51
51
51
51
51
51
51
51
51
51
51
51
51
51
51
51
51
51
51
51
51
51
51
51
84
84
84
84
84
84
168
168
168
168
168
168
168
168
168
168
168
168
168
84
84
84
84
84
84
84
168
168
168
168
168
84
84
84
168
168
168
168
168
84
84
84
84
51
51
51
51
51
51
51
51
51
51
51
51
51
51
51
51
51
51
51
51
51
51
51
51
51
51
51
84
84
84
84
84
84
84
84
84
84
84
84
84
84
84
84
51
51
51
51
51
51
51
51
51
51
51
51
51
51
51
51
51
51
51
84
84
84
84
51
51
51
51
51
51
51
51
51
51
51
51
51
51
51
51
51
51
51
51
84
84
84
84
84
84
168
168
168
168
168
168
168
168
168
168
168
168
84
84
84
84
84
84
84
168
168
168
168
84
84
84
84
84
84
84
168
168
84
84
84
84
51
51
51
51
51
51
51
51
51
51
51
51
51
51
51
51
51
51
51
51
51
51
51
51
51
51
51
84
84
84
84
84
84
84
84
84
84
84
84
84
84
84
84
51
51
51
51
51
51
51
51
51
51
51
51
51
51
51
51
51
84
84
51
84
84
84
84
51
51
51
51
51
51
51
51
51
51
51
51
51
51
51
51
51
51
51
84
84
84
84
84
84
168
168
168
168
168
168
168
168
168
168
168
168
84
84
84
168
84
84
84
168
168
168
84
84
84
84
84
84
84
84
168
168
168
84
84
84
84
51
51
51
51
51
51
51
51
51
51
51
51
51
51
51
51
51
51
51
51
51
51
51
51
51
51
84
84
84
84
84
84
84
84
84
84
84
84
84
84
84
84
84
51
51
51
51
51
51
51
51
51
51
51
51
51
51
51
51
84
51
84
84
84
84
51
51
51
51
51
51
51
51
51
51
51
51
51
51
51
51
51
51
51
51
84
84
84
84
84
168
84
168
168
168
168
168
168
168
168
168
168
168
84
84
84
84
84
84
84
84
84
84
84
84
84
168
168
168
168
168
168
168
168
84
84
84
84
51
51
51
51
51
51
51
51
51
51
51
51
51
51
51
51
51
51
51
51
51
51
51
51
51
51
84
84
84
84
84
84
84
84
84
84
84
84
84
84
84
84
84
51
51
51
51
51
51
51
51
51
51
51
51
51
51
51
84
84
84
84
84
84
84
84
51
51
51
51
51
51
51
51
51
51
51
51
51
51
51
51
51
51
51
84
84
84
84
84
168
168
168
168
168
168
168
168
84
168
168
168
84
84
84
84
84
84
84
84
84
84
84
84
168
168
168
168
168
84
84
84
84
84
84
84
84
51
84
51
51
51
51
51
51
51
51
51
51
51
51
51
51
51
51
51
51
51
51
51
51
51
51
51
84
84
84
84
84
84
84
84
84
84
84
84
84
84
84
84
84
51
51
51
51
51
51
51
51
51
51
51
51
51
51
51
84
84
84
84
84
84
84
84
51
51
51
51
51
51
51
51
51
51
51
51
51
51
51
51
51
51
51
84
84
84
84
84
84
84
168
168
168
168
168
168
168
168
168
84
84
84
168
168
84
84
84
84
84
84
84
84
168
168
168
84
84
84
84
84
84
84
84
84
51
51
84
84
51
51
51
51
51
51
51
51
51
51
51
51
51
51
51
51
51
51
51
51
51
51
51
51
84
84
84
84
84
84
84
84
84
84
84
84
84
84
84
84
51
51
51
51
51
51
51
51
51
51
51
51
51
51
51
51
84
84
84
84
84
84
84
84
51
51
51
51
51
51
51
51
51
51
51
51
51
51
51
51
51
51
51
51
84
84
84
84
84
84
84
168
168
168
168
168
168
168
168
84
168
168
168
168
84
84
84
84
84
84
84
84
168
84
84
84
84
84
84
84
84
84
84
51
51
51
51
84
84
51
51
51
51
51
51
51
51
51
51
51
51
51
51
51
51
51
51
51
51
51
51
51
84
84
84
84
84
84
84
84
84
84
84
84
84
84
84
84
51
51
51
51
51
51
51
51
51
51
51
51
51
51
51
51
84
84
84
84
84
84
84
51
51
51
51
51
51
51
51
51
51
51
51
51
51
51
51
51
51
51
51
51
84
84
84
84
84
84
84
168
168
168
84
84
84
84
84
168
168
168
168
168
84
84
84
84
84
84
84
84
84
84
84
51
51
84
84
84
84
84
51
51
51
51
84
84
84
51
51
51
51
51
51
51
51
51
51
51
51
51
51
51
51
51
51
51
51
51
51
51
84
84
84
84
84
84
84
84
84
84
84
84
84
84
84
84
84
51
51
51
51
51
51
51
51
51
51
51
51
51
51
51
51
84
84
84
84
84
84
51
51
51
51
51
51
51
51
51
51
51
51
51
51
51
51
51
51
51
51
51
84
84
84
84
84
84
84
168
168
84
84
84
84
84
168
168
168
168
168
168
84
84
84
84
84
84
84
84
84
84
84
84
84
84
84
84
84
51
51
51
51
51
51
84
51
51
51
51
51
51
51
51
51
51
51
51
51
51
51
51
51
51
51
51
51
51
51
51
84
84
84
84
84
84
84
84
84
84
84
84
84
84
84
84
51
51
51
51
51
51
51
51
51
51
51
51
51
51
51
51
51
84
51
84
84
51
51
51
51
51
51
51
51
51
51
51
51
51
51
51
51
51
51
51
51
51
51
51
51
84
84
84
84
84
84
84
84
84
84
84
84
168
168
168
168
168
168
84
84
84
84
84
84
84
84
84
84
84
84
84
84
84
84
84
84
84
51
51
51
51
51
51
51
51
51
51
51
51
51
51
51
51
51
51
51
51
51
51
51
51
51
51
51
51
51
51
84
84
84
84
84
84
84
84
84
84
84
84
84
84
84
84
51
51
51
51
51
51
51
51
51
51
51
51
51
51
51
51
51
51
51
51
51
51
51
51
51
51
51
51
51
51
51
51
51
51
51
51
51
51
51
51
51
51
51
51
51
51
84
84
84
84
84
84
84
84
84
84
84
168
168
168
168
168
168
84
84
84
84
84
84
84
84
84
84
84
84
84
84
84
84
84
84
84
51
51
51
51
51
51
51
51
51
51
51
51
51
51
51
51
51
51
51
51
51
51
51
51
51
51
51
51
51
51
84
84
84
84
84
84
84
84
84
84
84
84
84
84
84
84
51
51
51
51
51
51
51
51
51
51
51
51
51
51
51
51
51
51
51
51
51
51
51
51
51
51
51
51
51
51
51
51
51
51
51
51
51
51
51
51
51
51
51
51
51
51
51
84
84
84
84
84
84
84
84
84
84
84
84
168
168
168
168
84
84
84
84
84
84
84
84
84
84
84
84
84
84
84
84
84
84
84
84
51
51
51
51
51
51
51
51
51
51
51
51
51
51
51
51
51
51
51
51
51
51
51
51
51
51
51
51
51
84
84
84
84
84
84
84
84
84
84
84
84
84
84
84
51
51
51
51
51
51
51
51
51
51
51
51
51
51
51
51
51
51
51
51
51
51
51
51
51
51
51
51
51
51
51
51
51
51
51
51
51
51
51
51
51
51
51
51
51
51
51
51
51
51
51
84
84
84
84
84
84
84
84
84
84
168
168
84
84
84
84
84
84
84
84
84
84
84
84
84
84
84
84
84
84
84
84
84
51
51
51
51
51
51
51
51
51
51
51
51
51
51
51
51
51
51
51
51
51
51
51
51
51
51
51
51
51
